# This file uses centimeters as units for non-parametric coordinates.

mtllib Door.mtl
g default
v 1.230678 3.603812 -0.247121
v 0.979878 -0.000000 -0.247108
v 2.008407 3.603812 -0.247109
v 2.008407 -0.000000 -0.247103
v 0.979878 0.616976 -0.247115
v 0.583620 2.969579 -0.247118
v 0.583620 1.181637 -0.247116
v 2.786136 3.603812 -0.247121
v 3.036932 -0.000000 -0.247108
v 3.036932 0.616976 -0.247115
v 3.433191 2.969579 -0.247118
v 3.433191 1.181637 -0.247116
v 3.109672 -0.000000 -0.201679
v 3.506052 3.000000 -0.201679
v 3.109674 -0.000000 0.002892
v 3.506053 3.000000 0.002892
v 4.008410 -0.000000 0.002892
v 4.008410 3.000000 0.002892
v 3.008620 4.000000 0.002894
v 3.506053 1.158655 -0.201679
v 3.506053 1.158655 0.002892
v 3.109674 0.593994 0.002892
v 3.109672 0.593994 -0.201679
v 2.814987 3.671050 0.002894
v 2.814987 3.671050 -0.201677
v 2.008407 4.000000 0.002895
v 2.008407 3.671050 0.002894
v 2.008407 3.671050 -0.201677
v 3.036933 -0.000000 -0.201679
v 3.438186 2.971303 -0.201679
v 3.433314 1.181637 -0.201679
v 3.036933 0.616976 -0.201679
v 2.787121 3.602354 -0.201677
v 2.008407 3.602354 -0.201677
v 3.438186 2.971303 -0.247110
v 3.433314 1.181637 -0.247110
v 3.036933 0.616976 -0.247110
v 3.036933 -0.000000 -0.247110
v 2.787121 3.602354 -0.247108
v 2.008407 3.602354 -0.247108
v 0.907139 -0.000000 -0.201679
v 0.510758 3.000000 -0.201679
v 0.907138 -0.000000 0.002892
v 0.510758 3.000000 0.002892
v 0.008400 -0.000000 0.002892
v 0.008400 3.000000 0.002892
v 1.008192 4.000000 0.002894
v 0.510758 1.158655 -0.201679
v 0.510758 1.158655 0.002892
v 0.907138 0.593994 0.002892
v 0.907139 0.593994 -0.201679
v 1.201824 3.671050 0.002894
v 1.201825 3.671050 -0.201677
v 0.979878 -0.000000 -0.201679
v 0.578625 2.971303 -0.201679
v 0.583498 1.181637 -0.201679
v 0.979878 0.616976 -0.201679
v 1.229692 3.602354 -0.201677
v 0.578625 2.971303 -0.247110
v 0.583498 1.181637 -0.247110
v 0.979878 0.616976 -0.247110
v 0.979878 -0.000000 -0.247110
v 1.229692 3.602354 -0.247108
vt 0.443577 0.155946
vt 0.443577 0.071888
vt 0.512126 0.001953
vt 0.766399 0.044781
vt 0.833083 0.044781
vt 0.833083 0.155946
vt 0.705370 0.001953
vt 0.512126 0.309939
vt 0.443577 0.240004
vt 0.766399 0.267111
vt 0.833083 0.267111
vt 0.705370 0.309939
vt 0.379985 0.127182
vt 0.337144 0.066153
vt 0.434281 0.001953
vt 0.379985 0.326198
vt 0.434281 0.326198
vt 0.337144 0.001953
vt 0.305294 0.398726
vt 0.326222 0.434280
vt 0.218117 0.434280
vt 0.218117 0.398726
vt 0.260271 0.159801
vt 0.066840 0.160328
vt 0.064357 0.152466
vt 0.263372 0.152466
vt 0.345333 0.161115
vt 0.270768 0.161115
vt 0.273252 0.153254
vt 0.347817 0.153254
vt 0.829395 0.027828
vt 0.831879 0.035690
vt 0.765195 0.035690
vt 0.765195 0.027828
vt 0.845011 0.157231
vt 0.943009 0.157321
vt 0.946110 0.164656
vt 0.841999 0.164656
vt 0.151533 0.164093
vt 0.235698 0.164093
vt 0.238710 0.171518
vt 0.151533 0.171518
vt 0.064357 0.180193
vt 0.064357 0.175282
vt 0.257787 0.175282
vt 0.257787 0.180193
vt 0.241966 0.190093
vt 0.241966 0.185182
vt 0.316532 0.185182
vt 0.316532 0.190093
vt 0.980687 0.168421
vt 0.980687 0.173331
vt 0.914003 0.173331
vt 0.914003 0.168421
vt 0.841999 0.184958
vt 0.841999 0.180048
vt 0.939997 0.180048
vt 0.939997 0.184958
vt 0.148521 0.188868
vt 0.064357 0.188868
vt 0.064357 0.183958
vt 0.148521 0.183958
vt 0.194736 0.058614
vt 0.281912 0.058614
vt 0.281912 0.080724
vt 0.194736 0.080724
vt 0.208365 0.084489
vt 0.312476 0.084489
vt 0.312476 0.106599
vt 0.208364 0.106599
vt 0.949810 0.024063
vt 0.750794 0.024063
vt 0.750794 0.001953
vt 0.949810 0.001953
vt 0.916564 0.142295
vt 0.841999 0.142295
vt 0.841999 0.120184
vt 0.916564 0.120184
vt 0.928404 0.115274
vt 0.992604 0.115274
vt 0.992604 0.137385
vt 0.928404 0.137385
vt 0.056249 0.127182
vt 0.001953 0.001953
vt 0.099090 0.066153
vt 0.056249 0.326198
vt 0.001953 0.326198
vt 0.099090 0.001953
vt 0.130940 0.398726
vt 0.110012 0.434280
vt 0.067458 0.148174
vt 0.064357 0.140839
vt 0.263372 0.140839
vt 0.260888 0.148701
vt 0.340533 0.164880
vt 0.343017 0.172742
vt 0.268452 0.172742
vt 0.265968 0.164880
vt 0.906199 0.176283
vt 0.841999 0.176283
vt 0.841999 0.168421
vt 0.908683 0.168421
vt 0.943099 0.146042
vt 0.946110 0.153467
vt 0.841999 0.153467
vt 0.845101 0.146132
vt 0.064357 0.171518
vt 0.067368 0.164093
vt 0.637008 0.998047
vt 0.443577 0.998047
vt 0.443577 0.993137
vt 0.637008 0.993137
vt 0.711573 0.998047
vt 0.711573 0.993137
vt 0.778257 0.993137
vt 0.778257 0.998047
vt 0.363966 0.181417
vt 0.265968 0.181417
vt 0.265968 0.176507
vt 0.363966 0.176507
vt 0.232686 0.183958
vt 0.232686 0.188868
vt 0.107559 0.080724
vt 0.107559 0.058614
vt 0.202070 0.084489
vt 0.202070 0.106599
vt 0.097958 0.106599
vt 0.097958 0.084489
vt 0.306574 0.001953
vt 0.306574 0.024063
vt 0.107559 0.024063
vt 0.107559 0.001953
vt 0.321332 0.110364
vt 0.321332 0.132475
vt 0.246767 0.132475
vt 0.246766 0.110364
vt 0.992604 0.089399
vt 0.992604 0.111509
vt 0.928404 0.111509
vt 0.928404 0.089399
vn -0.000000 0.000002 1.000000
vn -0.000015 0.000020 1.000000
vn -0.000008 0.000002 1.000000
vn -0.000013 -0.000002 1.000000
vn -0.000005 0.000011 1.000000
vn -0.000000 0.000002 1.000000
vn -0.000007 0.000001 1.000000
vn 0.000008 0.000002 1.000000
vn 0.000015 0.000020 1.000000
vn 0.000013 -0.000002 1.000000
vn 0.000005 0.000011 1.000000
vn 0.000007 0.000001 1.000000
vn 0.000000 0.000000 1.000000
vn 0.000000 0.000000 1.000000
vn 0.000000 0.000000 1.000000
vn 0.000000 -0.000001 1.000000
vn 0.000000 -0.000000 1.000000
vn 0.000000 0.000000 1.000000
vn 0.000001 -0.000002 1.000000
vn 0.000001 -0.000002 1.000000
vn 0.000000 -0.000002 1.000000
vn 0.000000 -0.000002 1.000000
vn 0.000000 0.000000 1.000000
vn 0.000000 0.000000 1.000000
vn 0.000000 0.000000 1.000000
vn 0.000000 0.000000 1.000000
vn 0.000000 0.000000 1.000000
vn 0.000000 0.000000 1.000000
vn 0.000000 0.000000 1.000000
vn 0.000000 0.000000 1.000000
vn 0.000000 0.000000 1.000000
vn 0.000000 0.000000 1.000000
vn 0.000000 0.000000 1.000000
vn 0.000000 0.000000 1.000000
vn 0.000002 -0.000001 1.000000
vn 0.000002 -0.000001 1.000000
vn 0.000002 -0.000001 1.000000
vn 0.000002 -0.000001 1.000000
vn 0.000000 0.000000 1.000000
vn 0.000000 0.000000 1.000000
vn 0.000000 0.000000 1.000000
vn 0.000000 0.000000 1.000000
vn -0.999996 0.002722 0.000000
vn -0.999996 0.002722 0.000000
vn -0.999996 0.002722 0.000000
vn -0.999996 0.002722 0.000000
vn -0.818469 0.574550 0.000000
vn -0.818469 0.574550 0.000000
vn -0.818469 0.574550 0.000000
vn -0.818469 0.574550 0.000000
vn -1.000000 0.000000 0.000000
vn -1.000000 0.000000 0.000000
vn -1.000000 0.000000 0.000000
vn -1.000000 0.000000 0.000000
vn -0.695984 -0.718057 0.000000
vn -0.695984 -0.718057 0.000000
vn -0.695984 -0.718057 0.000000
vn -0.695984 -0.718057 0.000000
vn 0.000000 -1.000000 0.000000
vn 0.000000 -1.000000 0.000000
vn 0.000000 -1.000000 0.000000
vn 0.000000 -1.000000 0.000000
vn 0.000000 -1.000000 -0.000001
vn 0.000000 -1.000000 0.000000
vn 0.000000 -1.000000 0.000000
vn 0.000000 -1.000000 -0.000001
vn -0.696641 -0.717420 0.000002
vn -0.696641 -0.717420 0.000002
vn -0.696641 -0.717420 0.000002
vn -0.696641 -0.717420 0.000002
vn -1.000000 -0.000000 0.000002
vn -1.000000 -0.000000 0.000002
vn -1.000000 -0.000000 0.000002
vn -1.000000 -0.000000 0.000002
vn -0.818470 0.574549 0.000004
vn -0.818470 0.574549 0.000004
vn -0.818470 0.574549 0.000004
vn -0.818470 0.574549 0.000004
vn -1.000000 0.000000 0.000009
vn -1.000000 0.000000 0.000009
vn -1.000000 0.000000 0.000009
vn -1.000000 0.000000 0.000009
vn 0.000000 0.000000 1.000000
vn 0.000000 0.000000 1.000000
vn 0.000000 0.000000 1.000000
vn -0.000000 -0.000001 1.000000
vn -0.000000 -0.000000 1.000000
vn 0.000000 0.000000 1.000000
vn -0.000001 -0.000002 1.000000
vn -0.000001 -0.000002 1.000000
vn 0.000000 0.000000 1.000000
vn 0.000000 0.000000 1.000000
vn 0.000000 0.000000 1.000000
vn 0.000000 0.000000 1.000000
vn 0.000000 0.000000 1.000000
vn 0.000000 0.000000 1.000000
vn 0.000000 0.000000 1.000000
vn 0.000000 0.000000 1.000000
vn -0.000000 0.000000 1.000000
vn -0.000000 0.000000 1.000000
vn -0.000000 0.000000 1.000000
vn -0.000000 0.000000 1.000000
vn -0.000002 -0.000001 1.000000
vn -0.000002 -0.000001 1.000000
vn -0.000002 -0.000001 1.000000
vn -0.000002 -0.000001 1.000000
vn 0.000000 0.000000 1.000000
vn 0.000000 0.000000 1.000000
vn 0.985785 0.168010 0.000000
vn 0.999996 0.002723 0.000000
vn 0.999996 0.002723 0.000000
vn 0.985785 0.168010 0.000000
vn 0.948079 0.318034 0.000000
vn 0.948079 0.318034 0.000000
vn 1.000000 0.000000 0.000000
vn 1.000000 0.000000 0.000000
vn 0.695983 -0.718058 0.000000
vn 0.695983 -0.718058 0.000000
vn 0.695983 -0.718058 0.000000
vn 0.695983 -0.718058 0.000000
vn 0.000000 -1.000000 0.000000
vn 0.000000 -1.000000 0.000000
vn 0.000000 -1.000000 -0.000001
vn 0.000000 -1.000000 -0.000001
vn 0.696641 -0.717420 0.000002
vn 0.696641 -0.717420 0.000002
vn 0.696641 -0.717420 0.000002
vn 0.696641 -0.717420 0.000002
vn 1.000000 0.000000 0.000000
vn 1.000000 0.000000 0.000000
vn 1.000000 0.000000 0.000000
vn 1.000000 0.000000 0.000000
vn 0.818470 0.574549 0.000002
vn 0.818470 0.574549 0.000002
vn 0.818470 0.574549 0.000002
vn 0.818471 0.574549 0.000002
vn 1.000000 0.000000 0.000005
vn 1.000000 0.000000 0.000005
vn 1.000000 0.000000 0.000005
vn 1.000000 0.000000 0.000005
s 1
g Door
usemtl initialShadingGroup
f 3/1/1 1/2/2 6/3/3
f 5/4/4 2/5/5 4/6/6
f 6/3/3 7/7/7 4/6/6 3/1/1
f 7/7/7 5/4/4 4/6/6
f 3/1/1 11/8/8 8/9/9
f 10/10/10 4/6/6 9/11/11
f 11/8/8 3/1/1 4/6/6 12/12/12
f 12/12/12 4/6/6 10/10/10
s 4
f 21/13/13 22/14/14 17/15/15
f 16/16/16 21/13/13 17/15/15 18/17/17
f 22/14/14 15/18/18 17/15/15
f 24/19/19 16/16/16 18/17/17 19/20/20
f 26/21/21 27/22/22 24/19/19 19/20/20
s off
f 30/23/23 31/24/24 20/25/25 14/26/26
f 31/27/27 32/28/28 23/29/29 20/30/30
f 23/31/31 32/32/32 29/33/33 13/34/34
f 33/35/35 30/36/36 14/37/37 25/38/38
s 5
f 34/39/39 33/40/40 25/41/41 28/42/42
s off
f 36/43/43 31/44/44 30/45/45 35/46/46
f 37/47/47 32/48/48 31/49/49 36/50/50
f 32/51/51 37/52/52 38/53/53 29/54/54
f 35/55/55 30/56/56 33/57/57 39/58/58
s 6
f 40/59/59 39/60/60 33/61/61 34/62/62
s 7
f 28/63/63 25/64/64 24/65/65 27/66/66
s off
f 25/67/67 14/68/68 16/69/69 24/70/70
f 14/71/71 20/72/72 21/73/73 16/74/74
f 20/75/75 23/76/76 22/77/77 21/78/78
f 23/79/79 13/80/80 15/81/81 22/82/82
s 4
f 49/83/83 45/84/84 50/85/85
f 44/86/86 46/87/87 45/84/84 49/83/83
f 50/85/85 45/84/84 43/88/88
f 52/89/89 47/90/90 46/87/87 44/86/86
f 26/21/21 47/90/90 52/89/89 27/22/22
s off
f 55/91/91 42/92/92 48/93/93 56/94/94
f 56/95/95 48/96/96 51/97/97 57/98/98
f 51/99/99 41/100/100 54/101/101 57/102/102
f 58/103/103 53/104/104 42/105/105 55/106/106
s 5
f 34/39/39 28/42/42 53/107/107 58/108/108
s 9
f 60/109/109 59/110/110 55/111/111 56/112/112
f 61/113/113 60/109/109 56/112/112 57/114/114
f 57/114/114 54/115/115 62/116/116 61/113/113
s off
f 59/117/117 63/118/118 58/119/119 55/120/120
s 6
f 40/59/59 34/62/62 58/121/121 63/122/122
s 7
f 28/63/63 27/66/66 52/123/123 53/124/124
s off
f 53/125/125 52/126/126 44/127/127 42/128/128
f 42/129/129 44/130/130 49/131/131 48/132/132
f 48/133/133 49/134/134 50/135/135 51/136/136
f 51/137/137 50/138/138 43/139/139 41/140/140
